<svg width="40" height="22" viewBox="0 0 40 22" fill="none" xmlns="http://www.w3.org/2000/svg">
    <path d="M18.0418 1H3.60429C2.71971 1 2.00012 1.71958 2.00012 2.60417V4.36967C2.00012 5.04342 2.26229 5.67683 2.73896 6.15258L8.08129 11.4912C8.29395 11.7039 8.41679 12 8.41679 12.3016V19.5625C8.41679 19.8311 8.57262 20.0749 8.81737 20.1868C8.90904 20.2298 9.00712 20.25 9.10429 20.25C9.26562 20.25 9.42512 20.1932 9.55162 20.0841L12.1192 17.8832C12.6793 17.4047 13.0001 16.7062 13.0001 15.9692V12.3208C13.0001 12.0119 13.1275 11.7103 13.3503 11.4958L18.875 6.16542C19.3645 5.69333 19.645 5.0315 19.645 4.35133V2.60417C19.646 1.71958 18.9264 1 18.0418 1V1Z" fill="#4F00B5"/>
    <g opacity="0.5">
        <path fill-rule="evenodd" clip-rule="evenodd" d="M33.8251 8.1582L30.0001 11.9749L26.1751 8.1582L25.0001 9.3332L30.0001 14.3332L35.0001 9.3332L33.8251 8.1582Z" fill="#83858A"/>
    </g>
</svg>
