<svg width="21" height="20" viewBox="0 0 21 20" fill="none" xmlns="http://www.w3.org/2000/svg">
    <g clip-path="url(#clip0_1116_1411)">
        <path d="M14.4646 0.0850029C14.587 0.155926 14.6816 0.26624 14.7332 0.397925C14.7847 0.529609 14.7901 0.674879 14.7484 0.810003L12.4971 8.125H16.6509C16.773 8.12496 16.8924 8.16065 16.9944 8.22769C17.0964 8.29473 17.1765 8.39018 17.2249 8.50224C17.2733 8.61431 17.2878 8.7381 17.2667 8.85832C17.2455 8.97854 17.1896 9.08994 17.1059 9.17875L7.10588 19.8038C7.00912 19.9066 6.88037 19.9737 6.7406 19.9941C6.60083 20.0144 6.4583 19.9868 6.33622 19.9158C6.21415 19.8447 6.11973 19.7344 6.06837 19.6029C6.01701 19.4713 6.01173 19.3262 6.05338 19.1913L8.30463 11.875H4.15088C4.02882 11.8751 3.9094 11.8394 3.80739 11.7723C3.70538 11.7053 3.62523 11.6098 3.57684 11.4978C3.52845 11.3857 3.51394 11.2619 3.53509 11.1417C3.55625 11.0215 3.61214 10.9101 3.69588 10.8213L13.6959 0.196253C13.7925 0.0935018 13.9211 0.0264636 14.0607 0.00603855C14.2002 -0.0143865 14.3426 0.0130027 14.4646 0.0837529V0.0850029ZM5.59713 10.625H9.15088C9.24869 10.625 9.34514 10.6479 9.43247 10.692C9.5198 10.736 9.59558 10.7999 9.6537 10.8786C9.71182 10.9573 9.75066 11.0485 9.76711 11.1449C9.78355 11.2413 9.77714 11.3403 9.74838 11.4338L8.03838 16.9875L15.2034 9.375H11.6509C11.5531 9.37502 11.4566 9.35209 11.3693 9.30804C11.282 9.26399 11.2062 9.20006 11.1481 9.12139C11.09 9.04272 11.0511 8.95151 11.0347 8.85509C11.0182 8.75867 11.0246 8.65974 11.0534 8.56625L12.7634 3.0125L5.59713 10.625Z" fill="#EE2A64"/>
    </g>
</svg>
