<svg width="20" height="20" viewBox="0 0 20 20" fill="none" xmlns="http://www.w3.org/2000/svg">
    <path d="M4.58336 12.5C5.31224 12.4978 6.01355 12.2211 6.54753 11.725L11.7642 14.7058C11.5894 15.3888 11.6665 16.1119 11.9812 16.7428C12.296 17.3736 12.8275 17.87 13.4783 18.141C14.1292 18.412 14.8559 18.4395 15.5253 18.2186C16.1948 17.9976 16.7623 17.5429 17.124 16.9377C17.4856 16.3325 17.6172 15.6173 17.4946 14.923C17.372 14.2287 17.0035 13.6018 16.4565 13.1571C15.9095 12.7123 15.2206 12.4794 14.5159 12.5011C13.8112 12.5227 13.1379 12.7975 12.6192 13.275L7.40253 10.2941C7.45753 10.0858 7.48753 9.86997 7.49253 9.65414L12.6175 6.72497C13.111 7.17395 13.7439 7.43956 14.41 7.47723C15.0761 7.51491 15.7349 7.32237 16.2758 6.9319C16.8168 6.54143 17.207 5.97681 17.381 5.33274C17.5551 4.68867 17.5023 4.00435 17.2316 3.39458C16.9608 2.78481 16.4887 2.2867 15.8942 1.9838C15.2998 1.6809 14.6193 1.59165 13.9668 1.73102C13.3144 1.87039 12.7297 2.2299 12.3109 2.74924C11.8921 3.26858 11.6646 3.91615 11.6667 4.5833C11.67 4.8233 11.7025 5.06247 11.7642 5.29414L7.02753 7.99997C6.75284 7.57502 6.37233 7.22884 5.92338 6.99545C5.47442 6.76205 4.97247 6.64947 4.46684 6.66876C3.96121 6.68805 3.4693 6.83856 3.03944 7.10548C2.60957 7.37241 2.25654 7.74657 2.01503 8.19122C1.77353 8.63586 1.65185 9.13568 1.66196 9.64158C1.67207 10.1475 1.81361 10.642 2.07269 11.0767C2.33177 11.5113 2.69946 11.8711 3.13965 12.1206C3.57983 12.3702 4.07737 12.5009 4.58336 12.5Z" fill="#EE2A64"/>
</svg>
