<svg width="21" height="20" viewBox="0 0 21 20" fill="none" xmlns="http://www.w3.org/2000/svg">
    <path d="M9.62928 2.58444C9.89594 1.91627 10.9051 1.91627 11.1726 2.58444L12.8976 7.12385C12.9578 7.27173 13.0638 7.39879 13.2015 7.48825C13.3393 7.57772 13.5024 7.6254 13.6693 7.62498H17.9084C18.6918 7.62498 19.0334 8.55123 18.4176 9.00485L15.4009 11.5833C15.2658 11.682 15.1671 11.8188 15.1189 11.9741C15.0706 12.1294 15.0755 12.2953 15.1326 12.4478L16.2343 16.8835C16.5026 17.596 15.6343 18.208 14.9776 17.7694L10.8801 15.2994C10.7398 15.2057 10.5725 15.1554 10.4009 15.1554C10.2294 15.1554 10.0621 15.2057 9.92178 15.2994L5.82428 17.7694C5.16844 18.208 4.29928 17.5952 4.56761 16.8835L5.66928 12.4478C5.72642 12.2953 5.73124 12.1294 5.68303 11.9741C5.63483 11.8188 5.53607 11.682 5.40094 11.5833L2.38428 9.00485C1.76761 8.55123 2.11094 7.62498 2.89261 7.62498H7.13178C7.29869 7.62551 7.46183 7.57788 7.59962 7.48839C7.73742 7.39891 7.84336 7.27179 7.90344 7.12385L9.62844 2.58444H9.62928Z" stroke="#EE2A64" stroke-width="1.2" stroke-linecap="round" stroke-linejoin="round"/>
</svg>
