<svg width="24" height="24" viewBox="0 0 24 24" fill="none" xmlns="http://www.w3.org/2000/svg">
  <path d="M3.75 3C3.15326 3 2.58097 3.23705 2.15901 3.65901C1.73705 4.08097 1.5 4.65326 1.5 5.25V12.75C1.5 13.3467 1.73705 13.919 2.15901 14.341C2.58097 14.7629 3.15326 15 3.75 15H14.25C14.8467 15 15.419 14.7629 15.841 14.341C16.2629 13.919 16.5 13.3467 16.5 12.75V5.25C16.5 4.65326 16.2629 4.08097 15.841 3.65901C15.419 3.23705 14.8467 3 14.25 3H3.75ZM7.6275 19.5C7.78266 19.9389 8.07012 20.3188 8.45026 20.5875C8.8304 20.8561 9.28451 21.0002 9.75 21H14.25C15.3334 21 16.4062 20.7866 17.4071 20.372C18.4081 19.9574 19.3175 19.3497 20.0836 18.5836C20.8497 17.8175 21.4574 16.9081 21.872 15.9071C22.2866 14.9062 22.5 13.8334 22.5 12.75V11.25C22.5002 10.7845 22.3561 10.3304 22.0875 9.95026C21.8188 9.57012 21.4389 9.28266 21 9.1275V12.75C21 14.5402 20.2888 16.2571 19.023 17.523C17.7571 18.7888 16.0402 19.5 14.25 19.5H7.6275ZM6.75 18C6.28451 18.0002 5.8304 17.8561 5.45026 17.5875C5.07012 17.3188 4.78266 16.9389 4.6275 16.5H14.25C14.7425 16.5 15.2301 16.403 15.6851 16.2145C16.14 16.0261 16.5534 15.7499 16.9017 15.4017C17.2499 15.0534 17.5261 14.64 17.7145 14.1851C17.903 13.7301 18 13.2425 18 12.75V6.1275C18.4389 6.28266 18.8188 6.57012 19.0875 6.95026C19.3561 7.3304 19.5002 7.78451 19.5 8.25V12.75C19.5 14.1424 18.9469 15.4777 17.9623 16.4623C16.9777 17.4469 15.6424 18 14.25 18H6.75Z" fill="#EE2A64"/>
</svg>
