<svg width="24" height="24" viewBox="0 0 24 24" fill="none" xmlns="http://www.w3.org/2000/svg">
  <g clip-path="url(#clip0_1104_2007)">
    <path d="M2.20861 3.51251H21.7914C22.7328 3.51251 23.5 4.27919 23.5 5.22262C23.5 6.16429 22.7331 6.93123 21.7914 6.93123H2.20861C1.26694 6.93123 0.5 6.16429 0.5 5.22262C0.5 4.27919 1.26715 3.51251 2.20861 3.51251Z" fill="#1D1D1D" stroke="white"/>
    <path d="M2.20861 10.2906H21.7914C22.7328 10.2906 23.5 11.0573 23.5 12.0008C23.5 12.9424 22.7331 13.7094 21.7914 13.7094H2.20861C1.26694 13.7094 0.5 12.9424 0.5 12.0008C0.5 11.0573 1.26715 10.2906 2.20861 10.2906Z" fill="#1D1D1D" stroke="white"/>
    <path d="M2.20861 17.0688H21.7914C22.7328 17.0688 23.5 17.8355 23.5 18.7789C23.5 19.7206 22.7331 20.4875 21.7914 20.4875H2.20861C1.26694 20.4875 0.5 19.7206 0.5 18.7789C0.5 17.8355 1.26716 17.0688 2.20861 17.0688Z" fill="#1D1D1D" stroke="white"/>
  </g>
  <defs>
    <clipPath id="clip0_1104_2007">
      <rect width="24" height="24" fill="white"/>
    </clipPath>
  </defs>
</svg>
