<svg width="21" height="24" viewBox="0 0 21 24" fill="none" xmlns="http://www.w3.org/2000/svg">
<path d="M19.3946 16.9131C17.8827 15.635 17.0157 13.767 17.0157 11.788V9C17.0157 5.48108 14.4017 2.56805 11.0157 2.08008V0.999939C11.0157 0.44696 10.5676 0 10.0156 0C9.46368 0 9.01562 0.44696 9.01562 0.999939V2.08008C5.62854 2.56805 3.01562 5.48108 3.01562 9V11.788C3.01562 13.767 2.14862 15.635 0.627564 16.921C0.238647 17.254 0.015625 17.738 0.015625 18.2499C0.015625 19.2151 0.800598 20.0001 1.76556 20.0001H18.2656C19.2307 20.0001 20.0157 19.2151 20.0157 18.2499C20.0157 17.738 19.7927 17.254 19.3946 16.9131Z" fill="white"/>
<path d="M10.0157 24C11.8268 24 13.3418 22.7089 13.6897 21H6.34167C6.68976 22.7089 8.20477 24 10.0157 24Z" fill="white"/>
</svg>
