<svg width="22" height="22" viewBox="0 0 22 22" fill="none" xmlns="http://www.w3.org/2000/svg">
    <path d="M21.0125 13.1L19.6156 11.2438C19.625 11.075 19.6156 10.8969 19.6156 10.7656L21.0125 8.90002C21.082 8.80923 21.1292 8.70341 21.1504 8.59107C21.1715 8.47873 21.1661 8.36299 21.1344 8.25314C20.8981 7.38882 20.5548 6.55739 20.1125 5.77814C20.0554 5.67916 19.977 5.59414 19.883 5.52927C19.7889 5.4644 19.6816 5.42131 19.5688 5.40314L17.2719 5.07502L16.925 4.72814L16.5969 2.43127C16.5787 2.31846 16.5356 2.21113 16.4708 2.11707C16.4059 2.02301 16.3209 1.94459 16.2219 1.88752C15.4426 1.44519 14.6112 1.10191 13.7469 0.865644C13.637 0.833981 13.5213 0.828513 13.409 0.849679C13.2966 0.870845 13.1908 0.918055 13.1 0.987519L11.2438 2.37502H10.7563L8.90002 0.987519C8.80923 0.918055 8.70341 0.870845 8.59107 0.849679C8.47873 0.828513 8.36299 0.833981 8.25314 0.865644C7.38882 1.10191 6.55739 1.44519 5.77814 1.88752C5.67916 1.94459 5.59414 2.02301 5.52927 2.11707C5.4644 2.21113 5.42131 2.31846 5.40314 2.43127L5.07502 4.72814L4.72814 5.07502L2.43127 5.40314C2.31846 5.42131 2.21113 5.4644 2.11707 5.52927C2.02301 5.59414 1.94459 5.67916 1.88752 5.77814C1.44519 6.55739 1.10191 7.38882 0.865644 8.25314C0.833981 8.36299 0.828513 8.47873 0.849679 8.59107C0.870845 8.70341 0.918055 8.80923 0.987519 8.90002L2.38439 10.7563V11.2344L0.987519 13.1C0.918055 13.1908 0.870845 13.2966 0.849679 13.409C0.828513 13.5213 0.833981 13.637 0.865644 13.7469C1.10191 14.6112 1.44519 15.4426 1.88752 16.2219C1.94459 16.3209 2.02301 16.4059 2.11707 16.4708C2.21113 16.5356 2.31846 16.5787 2.43127 16.5969L4.72814 16.925L5.07502 17.2719L5.40314 19.5688C5.42131 19.6816 5.4644 19.7889 5.52927 19.883C5.59414 19.977 5.67916 20.0554 5.77814 20.1125C6.55739 20.5548 7.38882 20.8981 8.25314 21.1344C8.31713 21.1529 8.3834 21.1624 8.45002 21.1625C8.61263 21.1646 8.7712 21.1118 8.90002 21.0125L10.7563 19.625H11.2438L13.1 21.0125C13.1908 21.082 13.2966 21.1292 13.409 21.1504C13.5213 21.1715 13.637 21.1661 13.7469 21.1344C14.6112 20.8981 15.4426 20.5548 16.2219 20.1125C16.3209 20.0554 16.4059 19.977 16.4708 19.883C16.5356 19.7889 16.5787 19.6816 16.5969 19.5688L16.925 17.2625C17.0375 17.15 17.1688 17.0281 17.2625 16.925L19.5688 16.5969C19.6816 16.5787 19.7889 16.5356 19.883 16.4708C19.977 16.4059 20.0554 16.3209 20.1125 16.2219C20.5548 15.4426 20.8981 14.6112 21.1344 13.7469C21.1661 13.637 21.1715 13.5213 21.1504 13.409C21.1292 13.2966 21.082 13.1908 21.0125 13.1ZM11 15.125C10.1842 15.125 9.38664 14.8831 8.70829 14.4298C8.02994 13.9766 7.50123 13.3323 7.18902 12.5786C6.8768 11.8248 6.79512 10.9954 6.95428 10.1953C7.11344 9.3951 7.50631 8.66009 8.0832 8.0832C8.66009 7.50631 9.3951 7.11344 10.1953 6.95428C10.9954 6.79512 11.8248 6.8768 12.5786 7.18902C13.3323 7.50123 13.9766 8.02994 14.4298 8.70829C14.8831 9.38664 15.125 10.1842 15.125 11C15.125 12.094 14.6904 13.1432 13.9168 13.9168C13.1432 14.6904 12.094 15.125 11 15.125Z" fill="white"/>
</svg>