<svg width="24" height="24" viewBox="0 0 24 24" fill="none" xmlns="http://www.w3.org/2000/svg">
  <path d="M20.178 12.925L18.8976 11.2234C18.9062 11.0687 18.8976 10.9055 18.8976 10.7852L20.178 9.075C20.2417 8.99177 20.285 8.89477 20.3044 8.79179C20.3238 8.68881 20.3188 8.58272 20.2897 8.48203C20.0732 7.68973 19.7585 6.92759 19.353 6.21328C19.3007 6.12254 19.2288 6.04461 19.1426 5.98514C19.0564 5.92568 18.958 5.88618 18.8546 5.86953L16.7491 5.56875L16.4312 5.25078L16.1304 3.14531C16.1137 3.0419 16.0742 2.94351 16.0148 2.85729C15.9553 2.77107 15.8774 2.69919 15.7866 2.64687C15.0723 2.24141 14.3102 1.92673 13.5179 1.71015C13.4172 1.68113 13.3111 1.67612 13.2081 1.69552C13.1051 1.71492 13.0081 1.7582 12.9249 1.82187L11.2233 3.09375H10.7765L9.07491 1.82187C8.99168 1.7582 8.89468 1.71492 8.7917 1.69552C8.68872 1.67612 8.58263 1.68113 8.48194 1.71015C7.68964 1.92673 6.9275 2.24141 6.21319 2.64687C6.12245 2.69919 6.04451 2.77107 5.98505 2.85729C5.92559 2.94351 5.88609 3.0419 5.86944 3.14531L5.56866 5.25078L5.25069 5.56875L3.14522 5.86953C3.04181 5.88618 2.94342 5.92568 2.8572 5.98514C2.77098 6.04461 2.69909 6.12254 2.64678 6.21328C2.24132 6.92759 1.92664 7.68973 1.71006 8.48203C1.68104 8.58272 1.67603 8.68881 1.69543 8.79179C1.71483 8.89477 1.75811 8.99177 1.82178 9.075L3.10225 10.7766V11.2148L1.82178 12.925C1.75811 13.0082 1.71483 13.1052 1.69543 13.2082C1.67603 13.3112 1.68104 13.4173 1.71006 13.518C1.92664 14.3103 2.24132 15.0724 2.64678 15.7867C2.69909 15.8775 2.77098 15.9554 2.8572 16.0149C2.94342 16.0743 3.04181 16.1138 3.14522 16.1305L5.25069 16.4312L5.56866 16.7492L5.86944 18.8547C5.88609 18.9581 5.92559 19.0565 5.98505 19.1427C6.04451 19.2289 6.12245 19.3008 6.21319 19.3531C6.9275 19.7586 7.68964 20.0733 8.48194 20.2898C8.54059 20.3068 8.60134 20.3155 8.66241 20.3156C8.81147 20.3176 8.95682 20.2691 9.07491 20.1781L10.7765 18.9062H11.2233L12.9249 20.1781C13.0081 20.2418 13.1051 20.2851 13.2081 20.3045C13.3111 20.3239 13.4172 20.3189 13.5179 20.2898C14.3102 20.0733 15.0723 19.7586 15.7866 19.3531C15.8774 19.3008 15.9553 19.2289 16.0148 19.1427C16.0742 19.0565 16.1137 18.9581 16.1304 18.8547L16.4312 16.7406C16.5343 16.6375 16.6546 16.5258 16.7405 16.4312L18.8546 16.1305C18.958 16.1138 19.0564 16.0743 19.1426 16.0149C19.2288 15.9554 19.3007 15.8775 19.353 15.7867C19.7585 15.0724 20.0732 14.3103 20.2897 13.518C20.3188 13.4173 20.3238 13.3112 20.3044 13.2082C20.285 13.1052 20.2417 13.0082 20.178 12.925ZM10.9999 14.7812C10.252 14.7812 9.52098 14.5595 8.89916 14.144C8.27733 13.7285 7.79268 13.138 7.50649 12.447C7.22029 11.7561 7.14541 10.9958 7.29131 10.2623C7.43721 9.52882 7.79734 8.85507 8.32616 8.32625C8.85498 7.79743 9.52873 7.4373 10.2622 7.2914C10.9957 7.1455 11.756 7.22038 12.4469 7.50658C13.1379 7.79277 13.7284 8.27742 14.1439 8.89925C14.5594 9.52107 14.7812 10.2521 14.7812 11C14.7812 12.0028 14.3828 12.9646 13.6737 13.6737C12.9645 14.3829 12.0028 14.7812 10.9999 14.7812Z" fill="#EE2A64"/>
</svg>
