<svg viewBox="0 0 950 182" fill="none" xmlns="http://www.w3.org/2000/svg">
    <path class="logo-text" d="M284.208 146.918C279.677 146.918 276.22 145.666 273.835 143.163C271.45 140.659 270.258 137.142 270.258 132.611V42.1149H238.603C234.906 42.1149 232.045 41.1014 230.018 39.0745C227.991 37.0476 226.978 34.2457 226.978 30.6688C226.978 26.9726 227.991 24.1707 230.018 22.263C232.045 20.2361 234.906 19.2227 238.603 19.2227H329.635C333.331 19.2227 336.193 20.2361 338.219 22.263C340.246 24.1707 341.26 26.9726 341.26 30.6688C341.26 34.2457 340.246 37.0476 338.219 39.0745C336.193 41.1014 333.331 42.1149 329.635 42.1149H297.979V132.611C297.979 137.142 296.787 140.659 294.402 143.163C292.137 145.666 288.739 146.918 284.208 146.918Z" fill="white" />
    <path class="logo-text" d="M342.643 146.918C339.305 146.918 336.562 146.143 334.416 144.593C332.389 143.043 331.078 140.957 330.482 138.334C330.005 135.711 330.541 132.79 332.091 129.57L377.876 29.238C379.783 25.1842 382.049 22.263 384.672 20.4746C387.295 18.5669 390.335 17.6131 393.793 17.6131C397.251 17.6131 400.291 18.5669 402.914 20.4746C405.537 22.263 407.743 25.1842 409.531 29.238L455.674 129.57C457.224 132.79 457.76 135.77 457.283 138.513C456.925 141.136 455.733 143.222 453.706 144.772C451.679 146.203 449.056 146.918 445.837 146.918C441.783 146.918 438.624 145.965 436.358 144.057C434.212 142.149 432.304 139.168 430.635 135.115L419.904 110.255L430.993 117.945H356.414L367.503 110.255L356.951 135.115C355.162 139.288 353.255 142.328 351.228 144.236C349.32 146.024 346.458 146.918 342.643 146.918ZM393.435 48.7322L370.543 103.28L365.714 96.3051H421.693L416.864 103.28L393.793 48.7322H393.435Z" fill="white"/>
    <path class="logo-text" d="M517.222 147.276C512.214 147.276 507.087 146.859 501.841 146.024C496.714 145.309 491.766 144.236 486.997 142.805C482.347 141.374 478.174 139.586 474.477 137.44C471.854 136.009 470.006 134.161 468.933 131.895C467.86 129.511 467.443 127.126 467.681 124.742C468.039 122.357 468.933 120.27 470.364 118.482C471.914 116.574 473.822 115.382 476.087 114.905C478.472 114.309 481.095 114.726 483.956 116.157C488.845 118.899 494.15 120.926 499.874 122.238C505.716 123.549 511.498 124.205 517.222 124.205C525.925 124.205 532.125 122.893 535.821 120.27C539.518 117.528 541.366 114.13 541.366 110.076C541.366 106.619 540.054 103.876 537.431 101.849C534.808 99.8224 530.218 98.0936 523.66 96.6628L503.45 92.3705C492.004 89.9859 483.479 85.9321 477.876 80.209C472.391 74.3667 469.649 66.736 469.649 57.3168C469.649 51.3553 470.901 45.9303 473.404 41.0418C475.908 36.1534 479.425 31.9207 483.956 28.3438C488.487 24.7669 493.852 22.0246 500.052 20.1169C506.372 18.2092 513.287 17.2554 520.798 17.2554C527.475 17.2554 534.033 18.09 540.471 19.7592C546.91 21.3092 552.573 23.6342 557.462 26.7342C559.846 28.1649 561.456 30.013 562.291 32.2784C563.244 34.4245 563.543 36.6303 563.185 38.8957C562.946 41.0418 562.052 42.9495 560.502 44.6187C559.071 46.288 557.223 47.361 554.958 47.838C552.693 48.3149 549.95 47.7783 546.731 46.2284C542.796 44.2014 538.623 42.7111 534.212 41.7572C529.8 40.8034 525.27 40.3265 520.62 40.3265C515.612 40.3265 511.32 40.9822 507.743 42.2937C504.285 43.6053 501.602 45.4534 499.695 47.838C497.906 50.2226 497.012 52.9649 497.012 56.0649C497.012 59.5225 498.264 62.3245 500.768 64.4706C503.272 66.6167 507.623 68.3456 513.823 69.6571L534.033 73.9494C545.718 76.4532 554.421 80.5071 560.144 86.1109C565.867 91.5955 568.729 98.8686 568.729 107.93C568.729 113.892 567.537 119.317 565.152 124.205C562.768 128.974 559.31 133.088 554.779 136.545C550.248 140.003 544.823 142.686 538.504 144.593C532.185 146.382 525.091 147.276 517.222 147.276Z" fill="white"/>
    <path class="logo-text" d="M696.358 163.372C698.265 166.472 698.981 169.274 698.504 171.778C698.027 174.401 696.835 176.547 694.927 178.216C693.019 180.005 690.694 181.138 687.952 181.614C685.329 182.091 682.646 181.793 679.904 180.72C677.281 179.766 675.015 177.859 673.108 174.997L660.41 154.251C658.86 151.866 656.833 150.078 654.329 148.886C651.944 147.813 648.844 147.276 645.029 147.276L666.133 139.228C671.617 139.228 676.089 140.182 679.546 142.09C683.123 143.997 686.342 147.276 689.204 151.926L696.358 163.372ZM645.208 147.276C632.808 147.276 621.898 144.593 612.479 139.228C603.179 133.743 595.906 126.113 590.66 116.336C585.533 106.559 582.97 95.1724 582.97 82.1763C582.97 72.2802 584.4 63.3975 587.262 55.5283C590.243 47.5399 594.475 40.7438 599.96 35.1399C605.445 29.4169 612.002 25.0053 619.633 21.9053C627.383 18.8054 635.908 17.2554 645.208 17.2554C657.846 17.2554 668.815 19.9381 678.115 25.3034C687.415 30.6688 694.629 38.2399 699.756 48.0168C705.002 57.6745 707.625 69.0014 707.625 81.9975C707.625 91.8936 706.135 100.836 703.154 108.824C700.173 116.813 695.94 123.668 690.456 129.392C684.971 135.115 678.414 139.526 670.783 142.626C663.152 145.726 654.627 147.276 645.208 147.276ZM645.208 123.668C652.242 123.668 658.204 122.059 663.092 118.84C668.1 115.501 671.915 110.732 674.539 104.532C677.281 98.2128 678.652 90.7609 678.652 82.1763C678.652 69.061 675.731 58.9264 669.889 51.7726C664.046 44.4995 655.819 40.863 645.208 40.863C638.292 40.863 632.331 42.4726 627.323 45.6918C622.316 48.911 618.5 53.6206 615.877 59.8206C613.254 66.0206 611.943 73.4725 611.943 82.1763C611.943 95.1724 614.864 105.367 620.706 112.759C626.548 120.032 634.716 123.668 645.208 123.668Z" fill="white"/>
    <path class="logo-text" d="M783.08 147.276C774.137 147.276 766.209 146.143 759.293 143.878C752.497 141.493 746.774 138.036 742.124 133.505C737.474 128.974 733.957 123.311 731.572 116.515C729.307 109.599 728.174 101.611 728.174 92.5494V31.7419C728.174 27.0919 729.366 23.5746 731.751 21.19C734.136 18.8054 737.593 17.6131 742.124 17.6131C746.536 17.6131 749.934 18.8054 752.318 21.19C754.703 23.5746 755.895 27.0919 755.895 31.7419V92.7282C755.895 102.982 758.22 110.732 762.87 115.978C767.52 121.105 774.257 123.668 783.08 123.668C791.903 123.668 798.58 121.105 803.11 115.978C807.76 110.732 810.085 102.982 810.085 92.7282V31.7419C810.085 27.0919 811.278 23.5746 813.662 21.19C816.047 18.8054 819.445 17.6131 823.856 17.6131C828.268 17.6131 831.606 18.8054 833.872 21.19C836.256 23.5746 837.449 27.0919 837.449 31.7419V92.5494C837.449 104.592 835.362 114.726 831.189 122.953C827.135 131.061 821.054 137.142 812.947 141.195C804.958 145.249 795.003 147.276 783.08 147.276Z" fill="white"/>
    <path class="logo-text" d="M876.466 145.309C871.816 145.309 868.239 144.057 865.736 141.553C863.232 139.049 861.98 135.472 861.98 130.822V33.7092C861.98 29.0592 863.232 25.4823 865.736 22.9784C868.239 20.4746 871.816 19.2227 876.466 19.2227H938.883C942.46 19.2227 945.143 20.1765 946.931 22.0842C948.839 23.8727 949.793 26.4957 949.793 29.9534C949.793 33.5303 948.839 36.2726 946.931 38.1803C945.143 39.9688 942.46 40.863 938.883 40.863H888.449V70.3725H934.77C938.466 70.3725 941.208 71.3264 942.997 73.234C944.905 75.0225 945.858 77.7052 945.858 81.2821C945.858 84.859 944.905 87.6013 942.997 89.509C941.208 91.2974 938.466 92.1917 934.77 92.1917H888.449V123.668H938.883C942.46 123.668 945.143 124.622 946.931 126.53C948.839 128.318 949.793 130.942 949.793 134.399C949.793 137.976 948.839 140.718 946.931 142.626C945.143 144.415 942.46 145.309 938.883 145.309H876.466Z" fill="white"/>
    <path d="M41.1622 0.165281C63.7811 0.165282 82.1174 18.5016 82.1174 41.1205L82.1174 82.0758L41.1622 82.0758C18.5432 82.0758 0.206952 63.7395 0.206953 41.1205V41.1205C0.206954 18.5016 18.5432 0.16528 41.1622 0.165281V0.165281Z" fill="#4F00B5"/>
    <path d="M92.0073 82.0767L92.0073 41.1214C92.0073 18.5025 110.344 0.166184 132.963 0.166184V0.166184C155.582 0.166184 173.918 18.5025 173.918 41.1214V41.1214C173.918 63.7404 155.582 82.0767 132.963 82.0767L92.0073 82.0767Z" fill="#EE2A64"/>
    <path d="M41.1628 173.088C18.5438 173.088 0.207519 154.751 0.207518 132.132V132.132C0.207517 109.513 18.5438 91.1772 41.1627 91.1772L82.118 91.1772L82.118 132.132C82.118 154.751 63.7817 173.088 41.1628 173.088V173.088Z" fill="#EE2A64"/>
    <path d="M132.962 91.1763C155.581 91.1763 173.917 109.513 173.917 132.132V132.132C173.917 154.75 155.581 173.087 132.962 173.087V173.087C110.343 173.087 92.0068 154.75 92.0068 132.132L92.0068 91.1763L132.962 91.1763Z" fill="#4F00B5"/>
</svg>
