<svg width="24" height="24" viewBox="0 0 24 24" fill="none" xmlns="http://www.w3.org/2000/svg">
  <path d="M10 0C7.09223 0 4.72656 2.36566 4.72656 5.27344C4.72656 8.18121 7.09223 10.5469 10 10.5469C12.9078 10.5469 15.2734 8.18121 15.2734 5.27344C15.2734 2.36566 12.9078 0 10 0Z" fill="#EE2A64"/>
  <path d="M16.5612 13.992C15.1174 12.5261 13.2035 11.7188 11.1719 11.7188H8.82812C6.79656 11.7188 4.88258 12.5261 3.43883 13.992C2.00215 15.4507 1.21094 17.3763 1.21094 19.4141C1.21094 19.7377 1.47328 20 1.79688 20H18.2031C18.5267 20 18.7891 19.7377 18.7891 19.4141C18.7891 17.3763 17.9979 15.4507 16.5612 13.992Z" fill="#EE2A64"/>
</svg>
