<svg width="24" height="24" viewBox="0 0 24 24" fill="none" xmlns="http://www.w3.org/2000/svg">
  <g clip-path="url(#clip0_1104_1994)">
    <path d="M5.00018 0C4.60568 0 4.28589 0.319796 4.28589 0.714299V2.14286H5.71444V0.714299C5.71444 0.319796 5.39464 0 5.00018 0Z" fill="#EE2A64"/>
    <path d="M14.9999 0C14.6054 0 14.2856 0.319796 14.2856 0.714299V2.14286H15.7142V0.714299C15.7142 0.319796 15.3944 0 14.9999 0Z" fill="#EE2A64"/>
    <path d="M17.8571 2.14285H15.7143V5.00001C15.7143 5.39451 15.3945 5.71431 15 5.71431C14.6055 5.71431 14.2857 5.39451 14.2857 5.00001V2.14285H5.71427V5.00001C5.71427 5.39451 5.39447 5.71431 4.99997 5.71431C4.60547 5.71431 4.28567 5.39451 4.28567 5.00001V2.14285H2.14286C0.959388 2.14285 0 3.10224 0 4.28571V17.8572C0 19.0406 0.959388 20 2.14286 20H17.8571C19.0406 20 20 19.0406 20 17.8572V4.28571C20 3.10224 19.0406 2.14285 17.8571 2.14285ZM18.5714 17.8572C18.5714 18.2517 18.2516 18.5715 17.8571 18.5715H2.14286C1.74835 18.5715 1.42856 18.2517 1.42856 17.8572V8.57142H18.5714V17.8572Z" fill="#EE2A64"/>
    <path d="M14.791 10.2096C14.5121 9.93053 14.0597 9.9304 13.7806 10.2093L8.57135 15.4186L6.21919 13.0664C5.94007 12.7875 5.48773 12.7877 5.20883 13.0668C4.92992 13.3459 4.93009 13.7982 5.2092 14.0771L8.06635 16.9343C8.3453 17.2132 8.79743 17.2132 9.07634 16.9343L14.7906 11.22C15.0697 10.9411 15.0699 10.4888 14.791 10.2096Z" fill="#EE2A64"/>
  </g>
  <defs>
    <clipPath id="clip0_1104_1994">
      <rect width="24" height="24" fill="white"/>
    </clipPath>
  </defs>
</svg>
